<svg width="28" height="18" viewBox="0 0 28 18" fill="none" xmlns="http://www.w3.org/2000/svg">
<path d="M4.7115 1.6874L2.17156 1.68735C1.9815 1.68734 1.79445 1.73482 1.62739 1.82546C1.41094 1.9429 1.2383 2.12721 1.13524 2.35087L1.11685 2.39079C1.03986 2.55787 1.00804 2.74006 1.07301 2.91217C1.3117 3.54452 2.07619 4.98002 2.46991 5.83452L2.46992 5.83453C3.05788 7.11058 3.64585 8.38663 4.52779 9.9817C5.40974 11.5768 7.46762 14.1289 8.93753 15.4049C10.1135 16.4258 11.8774 17.0002 13.0533 17H15.1112C15.8167 17 15.9931 16.362 15.9931 16.043C15.9931 15.7242 15.9931 14.7671 16.2871 14.1289C16.8233 12.9649 17.463 13.1721 18.051 13.8099L20.1089 16.043C20.9508 16.9566 21.5788 17 22.1668 17H25.6945C27.5041 17 27.1645 15.7242 26.2825 14.7669L26.2747 14.7584C25.3885 13.7965 23.341 11.5742 22.7547 10.6197C22.3858 10.0191 22.7547 9.34367 23.0487 9.02466C24.0286 7.64226 26.1061 4.55847 26.5765 3.28241C27.0469 2.00636 26.1845 1.68734 25.6945 1.68734H21.8728C21.1672 1.68734 20.7948 2.32537 20.6968 2.64438L19.8149 4.55847C19.5209 5.19671 18.9329 6.47277 17.757 8.06769C16.5811 9.34389 15.9931 8.06784 15.9931 7.11058V2.64438C15.9931 2.32559 16.0519 1.87882 15.1112 1.3684C13.9352 0.730371 11.2894 1.0493 10.4074 1.36833C10.1286 1.46922 9.64879 1.82096 10.1135 2.32544C10.4074 2.6446 10.7014 2.6446 10.9954 3.28263C11.1071 3.52505 11.5834 6.15375 11.2894 7.74867C11.0315 9.14777 9.97078 8.8697 9.23152 8.06769C8.68533 7.47513 7.2935 4.77174 6.47003 3.02667C6.35056 2.7735 6.19508 2.53961 6.00538 2.33373L5.88306 2.20098C5.76432 2.07211 5.62513 1.96372 5.4711 1.88017C5.2379 1.75367 4.9768 1.68741 4.7115 1.6874Z" stroke="#667080" stroke-linejoin="round"/>
</svg>
